<?xml version="1.0" standalone="no"?><!DOCTYPE svg PUBLIC "-//W3C//DTD SVG 1.1//EN" "http://www.w3.org/Graphics/SVG/1.1/DTD/svg11.dtd"><svg t="1622188503810" class="icon" viewBox="0 0 1024 1024" version="1.1" xmlns="http://www.w3.org/2000/svg" p-id="7080" xmlns:xlink="http://www.w3.org/1999/xlink" width="200" height="200"><defs><style type="text/css"></style></defs><path d="M475.428571 548.571429m-475.428571 0a475.428571 475.428571 0 1 0 950.857143 0 475.428571 475.428571 0 1 0-950.857143 0Z" fill="#57BFB5" p-id="7081"></path><path d="M1024 438.857143a73.142857 73.142857 0 0 1-73.142857 73.142857H585.142857a73.142857 73.142857 0 0 1-73.142857-73.142857V73.142857a73.142857 73.142857 0 0 1 73.142857-73.142857 438.857143 438.857143 0 0 1 438.857143 438.857143z m-365.714286-283.355429V365.714286h210.212572A293.083429 293.083429 0 0 0 658.285714 155.501714z" fill="#394648" p-id="7082"></path></svg>