<?xml version="1.0" standalone="no"?><!DOCTYPE svg PUBLIC "-//W3C//DTD SVG 1.1//EN" "http://www.w3.org/Graphics/SVG/1.1/DTD/svg11.dtd"><svg t="1624022817097" class="icon" viewBox="0 0 1024 1024" version="1.1" xmlns="http://www.w3.org/2000/svg" p-id="2788" xmlns:xlink="http://www.w3.org/1999/xlink" width="200" height="200"><defs><style type="text/css"></style></defs><path d="M609.023601 880.269407a409.427631 409.427631 0 1 1 221.090921-281.481497" fill="#FF457A" p-id="2789"></path><path d="M40.942763 552.727302a409.427631 409.427631 0 0 1 765.834384-201.028967A409.427631 409.427631 0 1 0 73.49226 712.813506 407.994634 407.994634 0 0 1 40.942763 552.727302z" fill="#FFFFFF" p-id="2790"></path><path d="M429.899013 511.784539m-327.542105 0a327.542105 327.542105 0 1 0 655.084209 0 327.542105 327.542105 0 1 0-655.084209 0Z" fill="#5CBDFF" p-id="2791"></path><path d="M798.38388 798.38388m-204.713815 0a204.713815 204.713815 0 1 0 409.427631 0 204.713815 204.713815 0 1 0-409.427631 0Z" fill="#F4D240" p-id="2792"></path><path d="M614.141446 839.326643a204.713815 204.713815 0 0 1 376.059279-111.773743 204.713815 204.713815 0 1 0-363.367022 182.40001A204.713815 204.713815 0 0 1 614.141446 839.326643z" fill="#FFFFFF" p-id="2793"></path><path d="M655.08421 511.784539a20.471382 20.471382 0 0 0-20.471382-20.471382h-184.242434V266.12796a20.471382 20.471382 0 0 0-40.942763 0v245.656579a20.471382 20.471382 0 0 0 20.471382 20.471381h204.713815a20.471382 20.471382 0 0 0 20.471382-20.471381z" fill="#37348F" p-id="2794"></path><path d="M854.270752 580.568381A429.899013 429.899013 0 0 0 460.606085 83.523237V30.707072a30.707072 30.707072 0 0 0-61.414145 0v52.816165A429.899013 429.899013 0 0 0 429.899013 941.683551a425.804736 425.804736 0 0 0 170.936035-35.41549 225.185197 225.185197 0 1 0 253.435704-325.69968zM429.899013 900.740788a392.436384 392.436384 0 1 1 383.428976-327.542105H798.38388a225.185197 225.185197 0 0 0-213.721223 295.402036A385.066687 385.066687 0 0 1 429.899013 900.740788z m368.484867 81.885526a184.242434 184.242434 0 1 1 184.242434-184.242434 184.242434 184.242434 0 0 1-184.242434 184.242434z" fill="#37348F" p-id="2795"></path><path d="M880.269407 777.912499a20.471382 20.471382 0 0 0 0-40.942763h-44.422898l36.643773-36.643773a20.471382 20.471382 0 0 0-28.864648-28.864648L798.38388 717.521923l-45.241753-45.241753a20.471382 20.471382 0 0 0-28.864648 28.864648L760.921252 736.969736H716.498354a20.471382 20.471382 0 0 0 0 40.942763h61.414145v36.848487h-61.414145a20.471382 20.471382 0 0 0 0 40.942763h61.414145V921.21217a20.471382 20.471382 0 0 0 40.942763 0v-65.508421h61.414145a20.471382 20.471382 0 0 0 0-40.942763h-61.414145V777.912499z" fill="#37348F" p-id="2796"></path></svg>