<?xml version="1.0" standalone="no"?><!DOCTYPE svg PUBLIC "-//W3C//DTD SVG 1.1//EN" "http://www.w3.org/Graphics/SVG/1.1/DTD/svg11.dtd"><svg t="1623893120260" class="icon" viewBox="0 0 1024 1024" version="1.1" xmlns="http://www.w3.org/2000/svg" p-id="20984" xmlns:xlink="http://www.w3.org/1999/xlink" width="200" height="200"><defs><style type="text/css"></style></defs><path d="M214.6 184c-0.1 0-0.1 0 0 0h-39.2v-39.2c0-7.2-5.9-13-13.1-13-7.2 0-13.1 5.9-13 13.1v39.2h-39.2c-7.2 0-13.1 5.9-13 13.1s5.9 13 13.1 13h39.2v39.2c0 7.2 5.9 13 13.1 13 7.2 0 13.1-5.9 13-13.1v-39.2h39.2c7.2 0 13.1-5.9 13-13.1s-5.9-13-13.1-13z" fill="#F70000" p-id="20985"></path><path d="M96.5 329.8c-5.9-5.9-15.6-5.9-21.5 0l-4.6 4.6-4.6-4.6c-5.9-5.9-15.6-5.9-21.5 0s-5.9 15.6 0 21.5l15.4 15.4c5.9 5.9 15.6 5.9 21.5 0l15.4-15.4c5.9-5.9 5.9-15.6-0.1-21.5z" fill="#F70000" opacity=".47" p-id="20986"></path><path d="M943.4 263.1c-0.4-11.7-10.3-21-22.1-20.6l-9.2 0.3-0.3-9.2c-0.4-11.7-10.3-21-22.1-20.6-11.7 0.4-21 10.3-20.6 22.1l1.1 30.5c0.4 11.7 10.3 21 22.1 20.6l30.5-1.1c11.7-0.3 21-10.2 20.6-22z" fill="#F70000" p-id="20987"></path><path d="M351.2 131.6c-18 0-32.7-14.6-32.7-32.7s14.6-32.7 32.7-32.7 32.7 14.6 32.7 32.7-14.7 32.7-32.7 32.7z m0-52.2c-10.8 0-19.6 8.8-19.6 19.6s8.8 19.6 19.6 19.6 19.6-8.8 19.6-19.6-8.8-19.6-19.6-19.6z" fill="#F70000" opacity=".47" p-id="20988"></path><path d="M908 895.6H246.8c-2.1 0-3.7-1.7-3.7-3.7V426.5c0-2.7 2.2-5 5-5H908c2.1 0 3.7 1.7 3.7 3.7v466.6c0 2.1-1.6 3.8-3.7 3.8z" fill="#F70000" opacity=".47" p-id="20989"></path><path d="M291.7 542.5c-7.2 0-13.1-5.8-13.1-13.1v-29.7c0-27.3 22.2-49.5 49.5-49.5h70.4c7.2 0 13.1 5.8 13.1 13.1 0 7.2-5.8 13.1-13.1 13.1h-70.4c-12.9 0-23.4 10.5-23.4 23.4v29.7c0.1 7.2-5.7 13-13 13z" fill="#FFFFFF" p-id="20990"></path><path d="M875.9 895.6h-597c-19.8 0-35.8-16.3-35.8-36.5 0 0 525.3 6.1 668.6-115.5v115.5c0 20.2-16 36.5-35.8 36.5z" fill="#F70000" p-id="20991"></path><path d="M180.3 516.4c-7.2 0-13.1-5.8-13.1-13.1v-38.6c0-7.2 5.8-13.1 13.1-13.1s13.1 5.8 13.1 13.1v38.6c0 7.3-5.9 13.1-13.1 13.1z" p-id="20992"></path><path d="M862.6 907.4H227.4c-33.2 0-60.1-27.7-60.1-61.7V554.1c0-7.2 5.8-13.1 13.1-13.1s13.1 5.8 13.1 13.1v291.7c0 19.6 15.2 35.6 34 35.6h635.3c18.7 0 34-16 34-35.6V403.7c0-19.6-15.2-35.6-34-35.6H227.4c-18.7 0-34 16-34 35.6v8.6c0 7.2-5.8 13.1-13.1 13.1s-13.1-5.8-13.1-13.1v-8.6c0-34 27-61.7 60.1-61.7h635.3c33.2 0 60.1 27.7 60.1 61.7v442.1c0.1 34-26.9 61.6-60.1 61.6z" p-id="20993"></path><path d="M726.1 364.1H412.5c-0.7 0-1.2-0.6-1.2-1.2V234.1c0-2.1 1.7-3.7 3.7-3.7h308.6c2.1 0 3.7 1.7 3.7 3.7v128.7c0 0.7-0.5 1.3-1.2 1.3z" fill="#F70000" opacity=".47" p-id="20994"></path><path d="M732.5 367.1h-375V244c0-36 29.3-65.3 65.3-65.3h244.4c36 0 65.3 29.3 65.3 65.3v123.1z m-348.9-26.2h322.7V244c0-21.6-17.6-39.2-39.2-39.2H422.8c-21.6 0-39.2 17.6-39.2 39.2v96.9zM542.3 728.6c-138 0-268.6-31.5-367.7-88.8-6.2-3.6-8.4-11.6-4.8-17.8 3.6-6.2 11.6-8.4 17.8-4.8 95.2 55 221.1 85.3 354.6 85.3 135.9 0 263.4-31.2 359.1-88 6.2-3.7 14.2-1.6 17.9 4.6s1.6 14.2-4.6 17.9c-99.6 59.1-231.9 91.6-372.3 91.6z" p-id="20995"></path><path d="M553.5 654c-7.2 0-13.1-5.8-13.1-13.1V470.8c0-7.2 5.8-13.1 13.1-13.1 7.2 0 13.1 5.8 13.1 13.1V641c0 7.2-5.9 13-13.1 13z" p-id="20996"></path><path d="M638.6 568.9H468.4c-7.2 0-13.1-5.8-13.1-13.1s5.8-13.1 13.1-13.1h170.2c7.2 0 13.1 5.8 13.1 13.1s-5.9 13.1-13.1 13.1z" p-id="20997"></path><path d="M298 741.4c-7.2 0-13.1-5.8-13.1-13.1v-89.4c0-7.2 5.8-13.1 13.1-13.1 7.2 0 13.1 5.8 13.1 13.1v89.4c0 7.2-5.9 13.1-13.1 13.1z" p-id="20998"></path><path d="M796.2 741.4c-7.2 0-13.1-5.8-13.1-13.1v-89.4c0-7.2 5.8-13.1 13.1-13.1 7.2 0 13.1 5.8 13.1 13.1v89.4c0 7.2-5.9 13.1-13.1 13.1z" p-id="20999"></path></svg>