<?xml version="1.0" standalone="no"?><!DOCTYPE svg PUBLIC "-//W3C//DTD SVG 1.1//EN" "http://www.w3.org/Graphics/SVG/1.1/DTD/svg11.dtd"><svg t="1623893085742" class="icon" viewBox="0 0 1024 1024" version="1.1" xmlns="http://www.w3.org/2000/svg" p-id="19138" xmlns:xlink="http://www.w3.org/1999/xlink" width="200" height="200"><defs><style type="text/css"></style></defs><path d="M409.6 699.733333C230.4 699.733333 85.333333 554.666667 85.333333 379.733333c0-179.2 145.066667-324.266667 324.266667-324.266666 179.2 0 324.266667 145.066667 324.266667 324.266666 0 174.933333-145.066667 320-324.266667 320z m0-593.066666c-149.333333 0-273.066667 123.733333-273.066667 273.066666 0 149.333333 123.733333 273.066667 273.066667 273.066667 149.333333 0 273.066667-123.733333 273.066667-273.066667 0-153.6-123.733333-273.066667-273.066667-273.066666z" fill="#6A3906" p-id="19139"></path><path d="M405.333333 379.733333m-217.6 0a217.6 217.6 0 1 0 435.2 0 217.6 217.6 0 1 0-435.2 0Z" fill="#F5CB2B" p-id="19140"></path><path d="M832 968.533333c-51.2 0-106.666667-42.666667-123.733333-59.733333-68.266667-55.466667-145.066667-132.266667-221.866667-213.333333-8.533333-8.533333-8.533333-25.6 0-38.4 8.533333-8.533333 25.6-8.533333 38.4 0 72.533333 81.066667 149.333333 153.6 217.6 209.066666 29.866667 25.6 76.8 51.2 98.133333 46.933334 12.8-4.266667 25.6-12.8 25.6-12.8s12.8-8.533333 17.066667-25.6c8.533333-17.066667 0-68.266667-46.933333-119.466667L661.333333 554.666667c-8.533333-12.8-8.533333-25.6 4.266667-38.4 12.8-8.533333 25.6-8.533333 38.4 4.266666l174.933333 200.533334c51.2 59.733333 76.8 128 55.466667 174.933333-12.8 25.6-29.866667 42.666667-34.133333 42.666667 0 0-21.333333 17.066667-42.666667 25.6-8.533333 4.266667-17.066667 4.266667-25.6 4.266666z" fill="#6A3906" p-id="19141"></path></svg>