<?xml version="1.0" standalone="no"?><!DOCTYPE svg PUBLIC "-//W3C//DTD SVG 1.1//EN" "http://www.w3.org/Graphics/SVG/1.1/DTD/svg11.dtd"><svg t="1623893142630" class="icon" viewBox="0 0 1024 1024" version="1.1" xmlns="http://www.w3.org/2000/svg" p-id="21935" xmlns:xlink="http://www.w3.org/1999/xlink" width="200" height="200"><defs><style type="text/css"></style></defs><path d="M835.584 640H225.28c-29.696 0-48.128-36.864-31.744-65.536l122.88-206.848c7.168-11.264 18.432-18.432 31.744-18.432h363.52c12.288 0 24.576 7.168 31.744 18.432l122.88 206.848c17.408 28.672-1.024 65.536-30.72 65.536z" fill="#FFE08A" p-id="21936"></path><path d="M835.584 655.36H225.28c-18.432 0-35.84-10.24-45.056-27.648-11.264-19.456-10.24-41.984 1.024-61.44l122.88-206.848c10.24-16.384 26.624-26.624 45.056-26.624h363.52c18.432 0 34.816 10.24 45.056 26.624l122.88 206.848c11.264 18.432 11.264 41.984 1.024 61.44C870.4 645.12 854.016 655.36 835.584 655.36zM349.184 364.544c-7.168 0-14.336 4.096-18.432 11.264l-122.88 206.848c-6.144 11.264-4.096 22.528 0 30.72 1.024 3.072 7.168 11.264 17.408 11.264h609.28c10.24 0 16.384-8.192 18.432-11.264 4.096-7.168 6.144-19.456 0-30.72l-122.88-206.848c-4.096-7.168-11.264-11.264-18.432-11.264H349.184z" fill="#330867" p-id="21937"></path><path d="M530.432 201.728m-165.888 0a165.888 165.888 0 1 0 331.776 0 165.888 165.888 0 1 0-331.776 0Z" fill="#F7D7FF" p-id="21938"></path><path d="M530.432 308.224c-81.92 0-150.528-59.392-163.84-138.24-2.048 9.216-2.048 18.432-2.048 28.672 0 92.16 74.752 165.888 165.888 165.888 92.16 0 165.888-74.752 165.888-165.888 0-9.216-1.024-19.456-2.048-28.672-13.312 78.848-81.92 138.24-163.84 138.24z" fill="#F0BEFC" p-id="21939"></path><path d="M530.432 379.904c-100.352 0-181.248-81.92-181.248-181.248S430.08 16.384 530.432 16.384s181.248 81.92 181.248 181.248-80.896 182.272-181.248 182.272z m0-332.8c-82.944 0-150.528 67.584-150.528 150.528S447.488 348.16 530.432 348.16s150.528-67.584 150.528-150.528S613.376 47.104 530.432 47.104z" fill="#330867" p-id="21940"></path><path d="M508.928 458.752l-77.824-45.056c-9.216-5.12-17.408-1.024-17.408 9.216v117.76c0 10.24 7.168 23.552 17.408 29.696l77.824 45.056c9.216 5.12 17.408 1.024 17.408-9.216V488.448c0-11.264-7.168-24.576-17.408-29.696" fill="#66C1FF" p-id="21941"></path><path d="M431.104 570.368c-9.216-5.12-17.408-18.432-17.408-29.696V422.912c0-10.24 8.192-15.36 17.408-9.216l77.824 45.056c9.216 5.12 17.408 18.432 16.384 29.696v117.76c0 10.24-7.168 15.36-17.408 9.216l-76.8-45.056m78.848-137.216l-77.824-45.056c-21.504-12.288-38.912-2.048-38.912 22.528v117.76c0 24.576 17.408 54.272 38.912 66.56l77.824 45.056c21.504 12.288 38.912 2.048 38.912-22.528V499.712c-1.024-23.552-18.432-54.272-38.912-66.56" fill="#330867" p-id="21942"></path><path d="M642.048 417.792l-77.824 45.056c-9.216 5.12-17.408 18.432-16.384 29.696v117.76c0 10.24 7.168 15.36 17.408 9.216l77.824-45.056c9.216-5.12 17.408-18.432 17.408-29.696V427.008c-2.048-10.24-9.216-14.336-18.432-9.216" fill="#66C1FF" p-id="21943"></path><path d="M564.224 619.52c-9.216 5.12-17.408 1.024-17.408-9.216V492.544c0-10.24 7.168-23.552 16.384-29.696l77.824-45.056c9.216-5.12 17.408-1.024 17.408 9.216v117.76c0 10.24-7.168 23.552-17.408 29.696l-76.8 45.056m77.824-227.328L563.2 437.248c-21.504 12.288-38.912 41.984-38.912 66.56v117.76c0 24.576 17.408 34.816 38.912 22.528l77.824-45.056c21.504-12.288 38.912-41.984 38.912-66.56V414.72c1.024-24.576-16.384-34.816-37.888-22.528" fill="#330867" p-id="21944"></path><path d="M475.136 530.432l-240.64 100.352c-12.288 5.12-25.6-1.024-30.72-12.288l-12.288-30.72c-5.12-12.288 1.024-25.6 12.288-30.72l240.64-100.352c12.288-5.12 25.6 1.024 30.72 12.288l12.288 30.72c5.12 11.264 0 25.6-12.288 30.72z" fill="#FFE08A" p-id="21945"></path><path d="M225.28 647.168c-15.36 0-29.696-9.216-35.84-23.552l-12.288-30.72c-8.192-19.456 1.024-43.008 21.504-51.2l240.64-100.352c19.456-8.192 43.008 1.024 51.2 21.504l12.288 30.72c8.192 19.456-1.024 43.008-21.504 51.2L240.64 645.12c-5.12 1.024-10.24 2.048-15.36 2.048z m227.328-178.176c-1.024 0-2.048 0-3.072 1.024l-240.64 100.352c-4.096 2.048-6.144 6.144-4.096 11.264l12.288 30.72c2.048 4.096 6.144 6.144 11.264 4.096l240.64-100.352c4.096-2.048 6.144-6.144 4.096-11.264l-12.288-30.72c-1.024-3.072-4.096-5.12-8.192-5.12z" fill="#330867" p-id="21946"></path><path d="M591.872 543.744l240.64 100.352c12.288 5.12 25.6-1.024 30.72-12.288l12.288-30.72c5.12-12.288-1.024-25.6-12.288-30.72l-240.64-100.352c-12.288-5.12-25.6 1.024-30.72 12.288l-12.288 30.72c-6.144 11.264 0 25.6 12.288 30.72z" fill="#FFE08A" p-id="21947"></path><path d="M841.728 660.48c-5.12 0-10.24-1.024-15.36-3.072l-240.64-100.352c-19.456-8.192-29.696-30.72-21.504-51.2l12.288-30.72c8.192-19.456 30.72-29.696 51.2-21.504l240.64 100.352c9.216 4.096 17.408 11.264 21.504 21.504s4.096 20.48 0 29.696l-12.288 30.72c-4.096 9.216-11.264 17.408-21.504 21.504-4.096 2.048-9.216 3.072-14.336 3.072zM613.376 483.328c-3.072 0-6.144 2.048-7.168 5.12l-12.288 30.72c-2.048 4.096 0 9.216 4.096 11.264l240.64 100.352c4.096 2.048 9.216 0 11.264-4.096l12.288-30.72c2.048-4.096 0-9.216-4.096-11.264l-240.64-100.352c-2.048-1.024-3.072-1.024-4.096-1.024z" fill="#330867" p-id="21948"></path><path d="M904.192 697.344H142.336c-10.24 0-17.408-8.192-17.408-17.408V655.36c0-10.24 8.192-17.408 17.408-17.408h761.856c10.24 0 17.408 8.192 17.408 17.408v24.576c0 9.216-8.192 17.408-17.408 17.408z" fill="#FC6B79" p-id="21949"></path><path d="M904.192 712.704H142.336c-18.432 0-32.768-15.36-32.768-32.768V655.36c0-18.432 15.36-32.768 32.768-32.768h761.856c18.432 0 32.768 15.36 32.768 32.768v24.576c0 17.408-15.36 32.768-32.768 32.768z m-761.856-60.416c-1.024 0-2.048 1.024-2.048 2.048v24.576c0 1.024 1.024 2.048 2.048 2.048h761.856c1.024 0 2.048-1.024 2.048-2.048v-24.576c0-1.024-1.024-2.048-2.048-2.048H142.336z" fill="#330867" p-id="21950"></path><path d="M231.424 998.4h-19.456c-7.168 0-13.312-6.144-13.312-13.312V697.344H245.76v287.744c0 7.168-6.144 13.312-14.336 13.312z" fill="#FC6B79" p-id="21951"></path><path d="M231.424 1013.76h-19.456c-16.384 0-28.672-13.312-28.672-28.672V681.984h77.824v303.104c0 15.36-13.312 28.672-29.696 28.672z m-17.408-30.72h16.384V712.704h-16.384V983.04z" fill="#330867" p-id="21952"></path><path d="M821.248 998.4h-19.456c-7.168 0-13.312-6.144-13.312-13.312V697.344h47.104v287.744c-1.024 7.168-7.168 13.312-14.336 13.312z" fill="#FC6B79" p-id="21953"></path><path d="M821.248 1013.76h-19.456c-16.384 0-28.672-13.312-28.672-28.672V681.984H849.92v303.104c0 15.36-13.312 28.672-28.672 28.672z m-18.432-30.72H819.2V712.704h-16.384V983.04z" fill="#330867" p-id="21954"></path><path d="M449.536 998.4h-32.768c-13.312 0-23.552-10.24-23.552-23.552V697.344h79.872v277.504c0 13.312-10.24 23.552-23.552 23.552z" fill="#E8B32E" p-id="21955"></path><path d="M449.536 1013.76h-32.768c-21.504 0-38.912-17.408-38.912-38.912V681.984h110.592v292.864c0 21.504-17.408 38.912-38.912 38.912z m-41.984-301.056v262.144c0 4.096 4.096 8.192 8.192 8.192h32.768c4.096 0 8.192-4.096 8.192-8.192V712.704h-49.152z" fill="#330867" p-id="21956"></path><path d="M643.072 998.4h-32.768c-13.312 0-23.552-10.24-23.552-23.552V697.344h79.872v277.504c1.024 13.312-10.24 23.552-23.552 23.552z" fill="#E8B32E" p-id="21957"></path><path d="M643.072 1013.76h-32.768c-21.504 0-38.912-17.408-38.912-38.912V681.984h110.592v292.864c1.024 21.504-17.408 38.912-38.912 38.912z m-40.96-301.056v262.144c0 4.096 4.096 8.192 8.192 8.192h32.768c4.096 0 8.192-4.096 8.192-8.192V712.704h-49.152z" fill="#330867" p-id="21958"></path></svg>