<?xml version="1.0" standalone="no"?><!DOCTYPE svg PUBLIC "-//W3C//DTD SVG 1.1//EN" "http://www.w3.org/Graphics/SVG/1.1/DTD/svg11.dtd"><svg t="1624022786196" class="icon" viewBox="0 0 1024 1024" version="1.1" xmlns="http://www.w3.org/2000/svg" p-id="2535" xmlns:xlink="http://www.w3.org/1999/xlink" width="200" height="200"><defs><style type="text/css"></style></defs><path d="M305.1 98.3h317.2v302.1H305.1V98.3z" fill="#95E55F" p-id="2536"></path><path d="M305.1 75.6c-12.5 0-22.7 10.1-22.7 22.7v158.6c-0.2 12.5 9.8 22.8 22.3 23s22.8-9.8 23-22.3V121h294.6c12.5 0.2 22.8-9.8 23-22.3 0.2-12.5-9.8-22.8-22.3-23H305.1z" fill="#444852" p-id="2537"></path><path d="M441 173.8s-60.4 37.8-60.4 181.3v45.3h317.2v-45.3c3.3-143.5 60.4-181.3 60.4-181.3H441z" fill="#B0FA90" p-id="2538"></path><path d="M259.7 309.8l83.1 30.2 83.1-30.2L509 340l83.1-30.2 83.1 30.2 83.1-30.2v619.4H259.7V309.8z" fill="#D7DFEB" p-id="2539"></path><path d="M758.3 309.8l-68 24.7v504c0 12.6-10.1 22.7-22.7 22.7H259.7v68h498.5V309.8z" fill="#B1C1D6" p-id="2540"></path><path d="M590.9 287c-12.5 0.5-22.3 11-21.8 23.5 0.4 9.3 6.4 17.5 15.2 20.5l83.1 30.2c5 1.8 10.5 1.8 15.5 0l52.7-19.1v466.2c-0.2 12.5 9.8 22.8 22.3 23 12.5 0.2 22.8-9.8 23-22.3V309.8c0-12.5-10.1-22.7-22.7-22.7-2.6 0-5.2 0.5-7.7 1.4l-75.4 27.4-75.4-27.4c-2.7-1.1-5.7-1.6-8.8-1.5z m-332.3 0.1c-12.1 0.6-21.5 10.6-21.5 22.6v619.4c0 12.5 10.1 22.7 22.7 22.7 7 0 13.6-3.2 17.9-8.7l99-127.2h264.8l70.5 90.6H350.4c-12.5-0.2-22.8 9.8-23 22.3-0.2 12.5 9.8 22.8 22.3 23h408.5c12.5 0 22.7-10.1 22.7-22.7 0-5-1.7-9.9-4.8-13.9l-105.7-136c-4.3-5.5-10.9-8.7-17.9-8.7H531.7V340c0-9.5-6-18-14.9-21.3l-83.1-30.2c-5-1.8-10.5-1.8-15.5 0l-75.4 27.4-75.4-27.4c-2.8-1.1-5.8-1.5-8.8-1.4z m167.3 46.8l60.4 22v414.7H365.5c-7 0-13.6 3.2-17.9 8.7l-65.2 83.8v-521l52.7 19.1c5 1.8 10.5 1.8 15.5 0l75.3-27.3zM441 151.1c-4.2 0-8.4 1.2-12 3.5 0 0-11.6 7.7-23.2 22.5s-25 37.8-34.6 71.5c-3.5 12 3.3 24.6 15.3 28.1s24.6-3.3 28.1-15.3c0-0.1 0.1-0.2 0.1-0.4 8.1-28.3 18.7-45.8 26.7-56 5.7-7.3 6.7-7.4 8.2-8.5H712c-7.8 13.6-15.6 29.7-22 52-3.9 11.9 2.6 24.7 14.5 28.6 11.9 3.9 24.7-2.6 28.6-14.5 0.2-0.5 0.3-1 0.4-1.5 8.2-28.5 18.6-46.1 26.3-56.4 7.7-10.3 10.9-11.9 10.9-11.9 10.4-6.9 13.3-21 6.4-31.4-4.2-6.4-11.3-10.2-18.9-10.2H441z" fill="#444852" p-id="2541"></path></svg>