<?xml version="1.0" standalone="no"?><!DOCTYPE svg PUBLIC "-//W3C//DTD SVG 1.1//EN" "http://www.w3.org/Graphics/SVG/1.1/DTD/svg11.dtd"><svg t="1623892953707" class="icon" viewBox="0 0 1024 1024" version="1.1" xmlns="http://www.w3.org/2000/svg" p-id="13500" xmlns:xlink="http://www.w3.org/1999/xlink" width="200" height="200"><defs><style type="text/css"></style></defs><path d="M963.4304 440.3712l-0.1024-0.7168c-0.1024-7.0656-0.8192-13.9264-2.2528-20.5824l-28.16-217.7536a69.20192 69.20192 0 0 0-68.8128-61.696l-656.5888 1.792c-34.5088 0-53.504 25.4464-58.2656 59.5968 0 0-41.0624 260.7616-41.1136 261.0176-9.216 59.8016 5.2224 88.2688 67.3792 88.2688s112.5376-48.8448 112.5376-109.1584c0-0.256-0.0512-0.512-0.0512-0.768h0.1024c0 0.256-0.0512 0.512-0.0512 0.768 0 60.2624 50.3808 109.1584 112.5376 109.1584s112.5376-48.8448 112.5376-109.1584c0-0.256-0.0512-0.512-0.0512-0.768h0.1024c0 0.256-0.0512 0.512-0.0512 0.768 0 60.2624 50.3808 109.1584 112.5376 109.1584s112.5376-48.8448 112.5376-109.1584c0 60.2624 50.3808 109.1584 112.5376 109.1584s112.5376-48.8448 112.5376-109.1584c0.1536-0.256 0.1536-0.512 0.1536-0.768z m-225.1264 0.8192c0-0.256-0.0512-0.512-0.0512-0.768h0.1024c0 0.2048-0.0512 0.4608-0.0512 0.768z" fill="#FDD653" p-id="13501"></path><path d="M912.128 537.856c-17.6128 11.1104-38.656 17.5616-61.2352 17.5616-62.1568 0-112.5376-48.8448-112.5376-109.1584 0 60.2624-50.3808 109.1584-112.5376 109.1584s-112.5376-48.8448-112.5376-109.1584c0 60.2624-50.3808 109.1584-112.5376 109.1584s-112.5376-48.8448-112.5376-109.1584c0 60.2624-50.3808 109.1584-112.5376 109.1584-21.1456 0-16.6912-8.192-23.2448 0l4.7616 10.752-0.512 280.8832c0 35.328 19.6096 74.496 54.8864 74.496l421.9904 1.7408v-165.4784c0-44.7488 36.3008-81.0496 81.0496-81.0496h6.0416c44.7488 0 81.0496 36.3008 81.0496 81.0496v166.1952l47.2064 0.2048c35.328 0 63.9488-28.6208 63.9488-63.9488v-320.3072l-0.7168-2.0992zM382.7712 806.6048A27.9552 27.9552 0 0 1 354.816 834.56H205.824a27.9552 27.9552 0 0 1-27.9552-27.9552v-2.0992a27.9552 27.9552 0 0 1 27.9552-27.9552h-4.0448v-122.1632c0-13.6704 11.0592-24.7296 24.7808-24.7296h107.5712c13.6704 0 24.7296 11.0592 24.7296 24.7296v122.1632h-4.0448a27.9552 27.9552 0 0 1 27.9552 27.9552v2.0992z" fill="#FF927C" p-id="13502"></path><path d="M358.8608 776.6016H233.5232v-108.6976c0-5.5296 4.5056-10.0352 10.0352-10.0352h90.5728c13.6704 0 24.7808 11.0592 24.7808 24.7808v93.952z" fill="#84DDFD" p-id="13503"></path><path d="M365.7216 834.56H226.5088c-9.4208 0-17.0496-7.6288-17.0496-17.0496s7.6288-17.0496 17.0496-17.0496h139.2128c9.4208 0 17.0496 7.6288 17.0496 17.0496S375.1424 834.56 365.7216 834.56z" fill="#FBC07C" p-id="13504"></path><path d="M978.7904 446.3104v-0.3584c0-0.6656 0-1.3312-0.0512-1.9968v-0.0512c-0.1536-7.5776-0.9728-15.0016-2.4064-22.0672L948.2752 163.84c-4.6592-43.008-40.8064-75.4176-84.0704-75.4176H170.9568c-41.9328 0-77.9264 31.3344-83.712 72.8576l-35.6352 254.6176c-2.4064 9.3184-3.7376 18.7904-3.9424 28.16-0.0512 0.5632-0.0512 1.2288-0.0512 1.8432v0.4096c0 42.1888 21.7088 79.5136 54.784 102.0416v311.9104c0 43.7248 35.584 79.3088 79.3088 79.3088h667.0336c43.7248 0 79.3088-35.584 79.3088-79.3088v-314.7776c30.8224-22.7328 50.7392-58.7264 50.7392-99.1744z m-900.4544 0.3584c0-0.256 0-0.4608 0.0512-0.7168v-0.7168c0.1024-7.3728 1.1264-14.8992 3.1232-22.3744 0.1536-0.6144 0.3072-1.2288 0.3584-1.8432l35.7376-255.5392c3.6864-26.4192 26.624-46.3872 53.2992-46.3872h693.248c27.5456 0 50.5344 20.6336 53.504 48.0256l28.16 258.7136c0.0512 0.512 0.1536 1.024 0.256 1.536 1.1776 5.5808 1.8432 11.52 1.8944 17.664 0 0.3072 0 0.6144 0.0512 0.8704 0 0.256 0 0.512 0.0512 0.768-0.1536 35.328-20.6848 66.1504-50.7904 81.9712-0.3584 0.2048-0.7168 0.3584-1.0752 0.512-2.1504 1.0752-4.352 2.0992-6.6048 3.072-0.7168 0.3072-1.4848 0.6144-2.2528 0.9216-2.0992 0.8192-4.2496 1.5872-6.4 2.2528-0.6144 0.2048-1.1776 0.4096-1.792 0.5632-2.7136 0.8192-5.4272 1.4848-8.2432 2.048-0.6656 0.1536-1.3824 0.256-2.0992 0.3584-2.2016 0.4096-4.4544 0.7168-6.7072 0.9728a100.42368 100.42368 0 0 1-21.248 0.2048c-1.024-0.1024-2.048-0.3072-3.072-0.4608-2.2016-0.3072-4.4032-0.5632-6.5536-0.9728-1.0752-0.2048-2.0992-0.5632-3.1744-0.768-2.048-0.4608-4.1472-0.9216-6.144-1.536-1.0752-0.3072-2.1504-0.768-3.2256-1.1264-1.8944-0.6656-3.84-1.28-5.7344-1.9968-1.0752-0.4096-2.048-0.9728-3.1232-1.4336-1.792-0.8192-3.6352-1.5872-5.376-2.5088-1.0752-0.5632-2.048-1.2288-3.072-1.792-1.6384-0.9216-3.328-1.8432-4.9152-2.8672-1.024-0.6656-1.9968-1.4848-3.0208-2.2016-1.4848-1.0752-3.0208-2.0992-4.4544-3.2256-0.9728-0.768-1.8432-1.6384-2.816-2.4576-1.3824-1.1776-2.816-2.3552-4.096-3.584-0.9216-0.8704-1.6896-1.792-2.56-2.7136-1.2288-1.28-2.56-2.56-3.6864-3.9424-0.8192-0.9728-1.536-1.9968-2.3552-3.0208-1.1264-1.3824-2.2528-2.7648-3.2768-4.1984-0.768-1.0752-1.3824-2.2016-2.0992-3.328-0.9216-1.4848-1.9456-2.8672-2.7648-4.4032-0.6656-1.1776-1.1776-2.4064-1.792-3.584-0.768-1.536-1.5872-3.0208-2.304-4.608-0.5632-1.2288-0.9728-2.56-1.4336-3.7888-0.6144-1.5872-1.28-3.1744-1.8432-4.8128-0.4096-1.3312-0.7168-2.7136-1.0752-4.0448-0.4608-1.6384-0.9728-3.2768-1.3312-4.9152-0.3072-1.3824-0.4608-2.816-0.6656-4.1984-0.256-1.6896-0.6144-3.328-0.8192-5.0688-0.1536-1.4336-0.1536-2.9184-0.256-4.352-0.1024-1.7408-0.256-3.4304-0.256-5.2224v-0.4096V445.44c0-0.512-0.1024-1.024-0.1536-1.536l-12.6464-197.9904a15.3344 15.3344 0 0 0-16.3328-14.336 15.36 15.36 0 0 0-14.336 16.3328l12.6464 198.6048c0 1.6896-0.1536 3.328-0.256 5.0176-0.1024 1.4848-0.1024 2.9696-0.256 4.4544-0.1536 1.6384-0.512 3.2768-0.768 4.9152-0.256 1.4848-0.4096 2.9696-0.7168 4.4032-0.3584 1.5872-0.8192 3.1232-1.2288 4.6592-0.4096 1.4336-0.7168 2.9184-1.1776 4.3008-0.512 1.4848-1.1264 2.9184-1.6896 4.4032-0.512 1.3824-1.024 2.816-1.5872 4.1984-0.6144 1.3824-1.3312 2.7136-2.048 4.096-0.6656 1.3824-1.3312 2.7648-2.048 4.096-0.7168 1.28-1.5872 2.5088-2.3552 3.7376-0.8192 1.3312-1.6384 2.7136-2.5088 3.9936-0.8192 1.1776-1.792 2.2528-2.6624 3.4304-0.9728 1.28-1.8944 2.56-2.9696 3.7888-0.9216 1.0752-1.9968 2.0992-2.9696 3.1232-1.1264 1.1776-2.1504 2.4064-3.328 3.5328-1.024 0.9728-2.1504 1.8944-3.2256 2.816-1.2288 1.0752-2.4064 2.2016-3.6864 3.2256-1.1264 0.8704-2.304 1.6896-3.4816 2.5088-1.3312 0.9728-2.6112 1.9968-3.9936 2.8672-1.2288 0.8192-2.56 1.4848-3.84 2.2528-1.3824 0.8192-2.7648 1.6896-4.1472 2.4576-1.3824 0.7168-2.8672 1.3312-4.3008 1.9968-1.3824 0.6656-2.7136 1.3312-4.1472 1.9456-1.536 0.6144-3.1744 1.1264-4.7616 1.6896-1.3824 0.4608-2.7136 1.024-4.1472 1.4848-1.792 0.512-3.6352 0.9216-5.4784 1.3824-1.28 0.3072-2.5088 0.7168-3.84 0.9728-1.9456 0.4096-3.9936 0.6144-5.9904 0.8704-1.2288 0.1536-2.4064 0.4096-3.6352 0.5632a105.81504 105.81504 0 0 1-19.8656 0c-1.024-0.1024-2.048-0.3072-3.072-0.4608-2.2016-0.3072-4.4032-0.5632-6.5536-0.9728-1.0752-0.2048-2.1504-0.5632-3.2256-0.8192-2.048-0.4608-4.096-0.9216-6.0928-1.536-1.1264-0.3584-2.2528-0.8192-3.3792-1.1776-1.8432-0.6144-3.7376-1.2288-5.5296-1.9456-1.1776-0.4608-2.304-1.0752-3.4304-1.5872-1.6896-0.768-3.4304-1.4848-5.0688-2.3552-1.1776-0.6144-2.304-1.3312-3.4816-2.048-1.536-0.8704-3.072-1.6896-4.5568-2.6624-1.1264-0.768-2.2016-1.5872-3.328-2.4064-1.3824-0.9728-2.816-1.9456-4.1472-2.9696-1.0752-0.8704-2.0992-1.8432-3.1744-2.7648-1.28-1.0752-2.56-2.1504-3.7376-3.2768-1.024-0.9728-1.9456-2.048-2.9184-3.072-1.1264-1.1776-2.304-2.304-3.3792-3.584-0.9216-1.1264-1.792-2.304-2.6624-3.4304-0.9728-1.28-1.9968-2.4576-2.9184-3.7888-0.8192-1.1776-1.536-2.4576-2.304-3.6864-0.8704-1.3312-1.7408-2.6624-2.56-4.0448-0.7168-1.28-1.3312-2.6112-1.9968-3.9424-0.7168-1.4336-1.4848-2.816-2.1504-4.2496-0.6144-1.3312-1.0752-2.7648-1.5872-4.1472-0.5632-1.4848-1.2288-2.9696-1.6896-4.4544-0.4608-1.3824-0.768-2.816-1.1264-4.2496-0.4096-1.5872-0.9216-3.1232-1.28-4.7104-0.3072-1.4336-0.4608-2.9184-0.7168-4.352-0.256-1.6384-0.6144-3.2256-0.768-4.9152-0.1536-1.4848-0.1536-2.9696-0.256-4.4544-0.1024-1.6896-0.256-3.3792-0.256-5.12v-0.4096-0.5632l-0.0512-177.5104c0-8.4992-6.8608-15.36-15.36-15.36s-15.36 6.8608-15.36 15.36l0.0512 176.6912c0 0.256-0.1024 0.512-0.1024 0.768 0 0.2048 0 0.5632 0.0512 0.9216v0.0512c0 1.7408-0.1536 3.4304-0.256 5.1712-0.1024 1.4848-0.1024 2.9696-0.256 4.4544-0.1536 1.6384-0.512 3.2256-0.768 4.864-0.256 1.4848-0.4096 2.9696-0.7168 4.4032-0.3584 1.536-0.8192 3.072-1.2288 4.5568-0.4096 1.4848-0.7168 2.9696-1.1776 4.4032s-1.0752 2.816-1.5872 4.1984c-0.5632 1.4848-1.0752 2.9696-1.6896 4.4032-0.5632 1.3312-1.28 2.56-1.9456 3.84-0.7168 1.4336-1.3824 2.9184-2.2016 4.352-0.6656 1.2288-1.4848 2.3552-2.2016 3.4816-0.8704 1.4336-1.6896 2.8672-2.6624 4.1984-0.768 1.0752-1.6384 2.0992-2.4576 3.1744-1.024 1.3824-2.048 2.7648-3.1744 4.0448-0.8704 1.024-1.8432 1.9456-2.7648 2.9184-1.1776 1.28-2.304 2.56-3.5328 3.7376-0.9728 0.9216-1.9968 1.7408-3.0208 2.6112-1.28 1.1264-2.56 2.304-3.8912 3.4304-1.0752 0.8192-2.2016 1.5872-3.328 2.4064-1.3824 1.024-2.7136 2.048-4.1472 3.0208-1.1776 0.768-2.4064 1.3824-3.6352 2.0992-1.4848 0.8704-2.8672 1.792-4.4032 2.56-1.28 0.6656-2.6624 1.2288-3.9936 1.8432-1.4848 0.7168-2.9696 1.4336-4.5056 2.0992-1.4848 0.6144-3.072 1.0752-4.608 1.6384-1.4336 0.512-2.816 1.0752-4.3008 1.536-1.7408 0.512-3.5328 0.9216-5.3248 1.3312-1.3312 0.3072-2.6112 0.7168-3.9424 0.9728-2.048 0.4096-4.1984 0.6656-6.2976 0.9216-1.1264 0.1536-2.2016 0.3584-3.328 0.512a105.81504 105.81504 0 0 1-19.8656 0c-1.024-0.1024-2.048-0.3072-3.072-0.4608-2.2016-0.3072-4.4032-0.5632-6.5536-0.9728-1.0752-0.2048-2.1504-0.5632-3.2256-0.8192-2.048-0.4608-4.096-0.9216-6.0928-1.536-1.1264-0.3584-2.2528-0.8192-3.3792-1.1776-1.8432-0.6144-3.7376-1.2288-5.5296-1.9456-1.1776-0.4608-2.304-1.0752-3.4304-1.5872-1.6896-0.768-3.4304-1.4848-5.0688-2.3552-1.1776-0.6144-2.304-1.3312-3.4816-2.048-1.536-0.8704-3.072-1.6896-4.5568-2.6624-1.1264-0.768-2.2016-1.5872-3.328-2.4064-1.3824-0.9728-2.816-1.9456-4.1472-2.9696-1.0752-0.8704-2.0992-1.8432-3.1744-2.7648-1.28-1.0752-2.56-2.1504-3.7376-3.2768-1.024-0.9728-1.9456-2.048-2.9184-3.072-1.1264-1.1776-2.304-2.304-3.3792-3.584-0.9216-1.1264-1.792-2.304-2.6624-3.4304-0.9728-1.28-1.9968-2.4576-2.9184-3.7888-0.8192-1.1776-1.536-2.4576-2.304-3.6864-0.8704-1.3312-1.7408-2.6624-2.56-4.0448-0.7168-1.28-1.3312-2.6112-1.9968-3.9424-0.7168-1.4336-1.4848-2.816-2.1504-4.2496-0.6144-1.3312-1.0752-2.7648-1.5872-4.1472-0.5632-1.4848-1.2288-2.9696-1.6896-4.4544-0.4608-1.3824-0.768-2.816-1.1264-4.2496-0.4096-1.5872-0.9216-3.1232-1.28-4.7104-0.3072-1.4336-0.4608-2.9184-0.7168-4.352-0.256-1.6384-0.6144-3.2256-0.768-4.9152-0.1536-1.4848-0.1536-2.9696-0.256-4.4544-0.1024-1.6896-0.256-3.328-0.256-5.0176l12.4416-198.6048a15.36 15.36 0 0 0-14.3872-16.2816 15.35488 15.35488 0 0 0-16.2816 14.3872L272.896 443.4944c-0.0512 0.256-0.0512 0.5632-0.0512 0.8192-0.0512 0.4096-0.1024 0.768-0.1024 1.1776v0.256c0 0.256 0 0.4608 0.0512 0.7168 0 1.7408-0.1536 3.4816-0.256 5.2224-0.1024 1.4336-0.1024 2.9184-0.256 4.352-0.2048 1.6896-0.512 3.328-0.768 5.0176-0.256 1.4336-0.4096 2.8672-0.7168 4.3008-0.3584 1.5872-0.8192 3.1744-1.28 4.7104-0.4096 1.4336-0.7168 2.8672-1.1264 4.2496-0.4608 1.4848-1.1264 2.9184-1.6896 4.4032-0.512 1.3824-1.024 2.816-1.6384 4.1984-0.6144 1.3824-1.3312 2.7136-2.048 4.0448-0.6656 1.3824-1.3312 2.7648-2.0992 4.096-0.7168 1.28-1.5872 2.5088-2.3552 3.7376-0.8192 1.3312-1.6384 2.7136-2.5088 3.9936-0.8192 1.1776-1.7408 2.2528-2.6112 3.3792-0.9728 1.28-1.9456 2.6112-2.9696 3.84-0.9216 1.0752-1.9456 2.048-2.8672 3.072-1.1264 1.1776-2.2016 2.4576-3.3792 3.584-1.024 0.9728-2.0992 1.8432-3.1232 2.7648-1.2288 1.0752-2.4576 2.2528-3.7376 3.2768-1.1264 0.8704-2.304 1.6384-3.4304 2.5088-1.3312 0.9728-2.6624 1.9968-4.0448 2.9184-1.2288 0.768-2.5088 1.4336-3.7376 2.2016-1.4336 0.8192-2.816 1.7408-4.2496 2.5088-1.3312 0.7168-2.7136 1.28-4.096 1.8944-1.4848 0.6656-2.9184 1.4336-4.4032 2.048-1.536 0.6144-3.072 1.0752-4.6592 1.6384-1.4336 0.512-2.816 1.0752-4.2496 1.4848-1.7408 0.512-3.5328 0.8704-5.2736 1.3312-1.3312 0.3072-2.6624 0.7168-3.9936 0.9728-1.9456 0.3584-3.9424 0.6144-5.888 0.8704-1.2288 0.1536-2.4576 0.4096-3.7376 0.5632a99.25632 99.25632 0 0 1-18.688 0.0512c-0.768-0.0512-1.536-0.1536-2.3552-0.2048-2.6624-0.3072-5.3248-0.6656-7.8848-1.1776-0.256-0.0512-0.4608-0.0512-0.7168-0.1024-2.7648-0.5632-5.4272-1.2288-8.0896-1.9968-0.7168-0.2048-1.4336-0.4096-2.2016-0.6656-2.4576-0.768-4.864-1.5872-7.2704-2.56-0.2048-0.1024-0.4608-0.1536-0.6656-0.256-2.7136-1.1264-5.3248-2.3552-7.936-3.6864-0.3584-0.2048-0.7168-0.3584-1.024-0.5632-29.952-15.9744-50.2784-46.6432-50.432-81.8176z m570.4704 462.1824v-151.04c0-36.1984 29.4912-65.6896 65.6896-65.6896h6.0416c36.1984 0 65.6896 29.4912 65.6896 65.6896v151.04h-137.4208z m248.576-346.5728v297.984c0 26.7776-21.8112 48.5888-48.5888 48.5888h-31.8464v-151.04c0-53.1456-43.264-96.4096-96.4096-96.4096h-6.0416c-53.1456 0-96.4096 43.264-96.4096 96.4096v151.04H181.7088c-26.7776 0-48.5888-21.8112-48.5888-48.5888v-296.4992c0.3072 0.1024 0.6144 0.1536 0.9216 0.256 6.1952 2.048 12.5952 3.6864 19.1488 4.8128 0.4096 0.0512 0.8192 0.1536 1.2288 0.2048 3.1744 0.512 6.3488 0.9216 9.5744 1.1776 0.512 0.0512 1.0752 0.1024 1.5872 0.1024 3.2768 0.256 6.5536 0.4096 9.8816 0.4096 48.5888 0 90.88-26.4704 112.5376-65.3824 21.6576 38.912 64 65.3824 112.5376 65.3824s90.88-26.4704 112.5376-65.3824c21.6576 38.912 64 65.3824 112.5376 65.3824s90.88-26.4704 112.5376-65.3824c21.6576 38.912 64 65.3824 112.5376 65.3824 3.7888 0 7.5264-0.2048 11.2128-0.512 0.3584-0.0512 0.7168-0.0512 1.0752-0.1024 3.584-0.3584 7.1168-0.8192 10.5984-1.4336 0.4608-0.1024 0.9216-0.1536 1.3824-0.256 3.4304-0.6656 6.8608-1.4336 10.1888-2.3552 0.512-0.1536 0.9728-0.256 1.4848-0.4096 3.328-0.9728 6.5536-1.9968 9.7792-3.2256 0.4608 0 0.7168-0.0512 0.9728-0.1536z" fill="#333333" p-id="13505"></path><path d="M374.2208 765.9008v-111.4624c0-22.1184-18.0224-40.0896-40.1408-40.0896H226.5088c-22.1184 0-40.0896 17.9712-40.0896 40.0896v111.4624c-14.1312 7.1168-23.9104 21.76-23.9104 38.656v2.0992c0 23.8592 19.4048 43.3152 43.3152 43.3152h148.992c23.8592 0 43.3152-19.4048 43.3152-43.3152v-2.0992c0-16.896-9.728-31.5392-23.9104-38.656z m-157.0816-111.4624c0-5.1712 4.1984-9.3696 9.3696-9.3696h107.5712c5.1712 0 9.4208 4.1984 9.4208 9.3696v106.8032H217.1392v-106.8032z m150.272 152.1664c0 6.912-5.632 12.5952-12.5952 12.5952H205.824c-6.9632 0-12.5952-5.632-12.5952-12.5952v-2.0992c0-6.9632 5.632-12.5952 12.5952-12.5952h148.992c6.9632 0 12.5952 5.632 12.5952 12.5952v2.0992z" fill="#333333" p-id="13506"></path></svg>