<?xml version="1.0" standalone="no"?><!DOCTYPE svg PUBLIC "-//W3C//DTD SVG 1.1//EN" "http://www.w3.org/Graphics/SVG/1.1/DTD/svg11.dtd"><svg t="1623893056263" class="icon" viewBox="0 0 1024 1024" version="1.1" xmlns="http://www.w3.org/2000/svg" p-id="16673" xmlns:xlink="http://www.w3.org/1999/xlink" width="200" height="200"><defs><style type="text/css"></style></defs><path d="M216.533333 842.666667c0 16-12.8 29.866667-29.866666 29.866666h-4.266667c-16 0-29.866667-12.8-29.866667-29.866666V635.733333c0-16 12.8-29.866667 29.866667-29.866666h4.266667c16 0 29.866667 12.8 29.866666 29.866666V842.666667z" fill="#C7E7FF" p-id="16674"></path><path d="M186.666667 888.533333h-4.266667c-25.6 0-45.866667-20.266667-45.866667-45.866666V635.733333c0-25.6 20.266667-45.866667 45.866667-45.866666h4.266667c25.6 0 45.866667 20.266667 45.866666 45.866666V842.666667c0 25.6-20.266667 45.866667-45.866666 45.866666z m-4.266667-266.666666c-7.466667 0-13.866667 6.4-13.866667 13.866666V842.666667c0 7.466667 6.4 13.866667 13.866667 13.866666h4.266667c7.466667 0 13.866667-6.4 13.866666-13.866666V635.733333c0-7.466667-6.4-13.866667-13.866666-13.866666h-4.266667z" fill="" p-id="16675"></path><path d="M877.866667 842.666667c0 16-12.8 29.866667-29.866667 29.866666h-4.266667c-16 0-29.866667-12.8-29.866666-29.866666V635.733333c0-16 12.8-29.866667 29.866666-29.866666h4.266667c16 0 29.866667 12.8 29.866667 29.866666V842.666667z" fill="#C7E7FF" p-id="16676"></path><path d="M848 888.533333h-4.266667c-25.6 0-45.866667-20.266667-45.866666-45.866666V635.733333c0-25.6 20.266667-45.866667 45.866666-45.866666h4.266667c25.6 0 45.866667 20.266667 45.866667 45.866666V842.666667c0 25.6-20.266667 45.866667-45.866667 45.866666z m-4.266667-266.666666c-7.466667 0-13.866667 6.4-13.866666 13.866666V842.666667c0 7.466667 6.4 13.866667 13.866666 13.866666h4.266667c7.466667 0 13.866667-6.4 13.866667-13.866666V635.733333c0-7.466667-6.4-13.866667-13.866667-13.866666h-4.266667z" fill="" p-id="16677"></path><path d="M344.533333 210.133333c0 12.8-9.6 22.4-22.4 22.4h-72.533333c-12.8 0-22.4-9.6-22.4-22.4V84.266667c0-12.8 9.6-22.4 22.4-22.4h72.533333c12.8 0 22.4 9.6 22.4 22.4v125.866666z" fill="#C7E7FF" p-id="16678"></path><path d="M322.133333 248.533333h-72.533333c-21.333333 0-38.4-17.066667-38.4-38.4V84.266667c0-21.333333 17.066667-38.4 38.4-38.4h72.533333c21.333333 0 38.4 17.066667 38.4 38.4v125.866666c0 21.333333-17.066667 38.4-38.4 38.4z m-72.533333-170.666666c-3.2 0-6.4 3.2-6.4 6.4v125.866666c0 3.2 3.2 6.4 6.4 6.4h72.533333c3.2 0 6.4-3.2 6.4-6.4V84.266667c0-3.2-3.2-6.4-6.4-6.4h-72.533333zM578.133333 269.866667H452.266667c-21.333333 0-38.4-17.066667-38.4-38.4v-104.533334c0-21.333333 17.066667-38.4 38.4-38.4h125.866666c21.333333 0 38.4 17.066667 38.4 38.4v104.533334c0 21.333333-17.066667 38.4-38.4 38.4z m-125.866666-149.333334c-3.2 0-6.4 3.2-6.4 6.4v104.533334c0 3.2 3.2 6.4 6.4 6.4h125.866666c3.2 0 6.4-3.2 6.4-6.4v-104.533334c0-3.2-3.2-6.4-6.4-6.4H452.266667z" fill="" p-id="16679"></path><path d="M813.866667 210.133333c0 12.8-9.6 22.4-22.4 22.4h-72.533334c-12.8 0-22.4-9.6-22.4-22.4V84.266667c0-12.8 9.6-22.4 22.4-22.4h72.533334c12.8 0 22.4 9.6 22.4 22.4v125.866666z" fill="#C7E7FF" p-id="16680"></path><path d="M791.466667 248.533333h-72.533334c-21.333333 0-38.4-17.066667-38.4-38.4V84.266667c0-21.333333 17.066667-38.4 38.4-38.4h72.533334c21.333333 0 38.4 17.066667 38.4 38.4v125.866666c0 21.333333-17.066667 38.4-38.4 38.4z m-72.533334-170.666666c-3.2 0-6.4 3.2-6.4 6.4v125.866666c0 3.2 3.2 6.4 6.4 6.4h72.533334c3.2 0 6.4-3.2 6.4-6.4V84.266667c0-3.2-3.2-6.4-6.4-6.4h-72.533334z" fill="" p-id="16681"></path><path d="M808.533333 493.866667V874.666667c0 22.4-10.666667 56.533333-33.066666 56.533333H264.533333c-22.4 0-53.333333-33.066667-53.333333-56.533333V187.733333c0-22.4 30.933333-23.466667 53.333333-23.466666h510.933334c22.4 0 33.066667 1.066667 33.066666 23.466666v221.866667" fill="#C7E7FF" p-id="16682"></path><path d="M708.266667 376.533333H338.133333c-68.266667 0-122.666667-53.333333-122.666666-118.4l-5.333334-56.533333v98.133333c0 65.066667 56.533333 119.466667 123.733334 119.466667H704c68.266667 0 124.8-54.4 124.8-119.466667l-8.533333-18.133333c-19.2 53.333333-53.333333 94.933333-112 94.933333z" fill="#068BBF" p-id="16683"></path><path d="M775.466667 952.533333H264.533333c-33.066667 0-64-43.733333-64-77.866666V187.733333c0-33.066667 30.933333-55.466667 64-55.466666h510.933334c33.066667 0 65.066667 22.4 65.066666 55.466666v209.066667c0 10.666667-10.666667 20.266667-21.333333 20.266667s-21.333333-8.533333-21.333333-20.266667V187.733333c0-11.733333-10.666667-12.8-22.4-12.8H264.533333c-11.733333 0-21.333333 2.133333-21.333333 12.8v688c0 11.733333 9.6 35.2 21.333333 35.2h510.933334c11.733333 0 22.4-23.466667 22.4-35.2V477.866667c0-10.666667 10.666667-20.266667 21.333333-20.266667s21.333333 8.533333 21.333333 20.266667v397.866666c0 33.066667-30.933333 76.8-65.066666 76.8z" fill="" p-id="16684"></path><path d="M697.6 397.866667h-27.733333c-8.533333 0-16-7.466667-16-16s7.466667-16 16-16h27.733333c58.666667 0 100.266667-60.8 100.266667-114.133334v-77.866666h-554.666667v77.866666c0 54.4 40.533333 114.133333 99.2 114.133334h231.466667c8.533333 0 16 7.466667 16 16s-7.466667 16-16 16H342.4c-76.8 0-131.2-76.8-131.2-146.133334v-93.866666c0-8.533333 7.466667-16 16-16h586.666667c8.533333 0 16 7.466667 16 16v93.866666c0 69.333333-54.4 146.133333-132.266667 146.133334z" fill="" p-id="16685"></path><path d="M723.2 845.866667h-405.333333v-128c0-8.533333 7.466667-16 16-16s16 7.466667 16 16v96h341.333333V645.333333c0-42.666667-24.533333-66.133333-69.333333-66.133333H425.6c-43.733333 0-75.733333 30.933333-77.866667 73.6 0 8.533333-7.466667 16-16 16s-16-7.466667-16-16c2.133333-59.733333 49.066667-104.533333 109.866667-104.533333h196.266667c62.933333 0 101.333333 37.333333 101.333333 98.133333v199.466667z" fill="" p-id="16686"></path><path d="M405.333333 208h-23.466666c-6.4 0-10.666667-4.266667-10.666667-10.666667s4.266667-10.666667 10.666667-10.666666H405.333333c6.4 0 10.666667 4.266667 10.666667 10.666666s-4.266667 10.666667-10.666667 10.666667z" fill="#FFFFFF" p-id="16687"></path><path d="M631.466667 209.066667H476.8c-6.4 0-10.666667-4.266667-10.666667-10.666667s4.266667-10.666667 10.666667-10.666667h154.666667c6.4 0 10.666667 4.266667 10.666666 10.666667 0 5.333333-4.266667 10.666667-10.666666 10.666667z" fill="#FFFFFF" p-id="16688"></path></svg>