<?xml version="1.0" standalone="no"?><!DOCTYPE svg PUBLIC "-//W3C//DTD SVG 1.1//EN" "http://www.w3.org/Graphics/SVG/1.1/DTD/svg11.dtd"><svg t="1623892920043" class="icon" viewBox="0 0 1024 1024" version="1.1" xmlns="http://www.w3.org/2000/svg" p-id="12128" xmlns:xlink="http://www.w3.org/1999/xlink" width="200" height="200"><defs><style type="text/css"></style></defs><path d="M714.3 862.5c-38.4-275.3-88.9-356.6-35.9-503.6l-6.7-19.2c-34.4-58.2-46.1-129.4-32.2-195.5l-29.9-4.5c-14.9 61.8-49.7 118.7-97.9 160.1h0.2c-48.2-41.5-83-98.3-97.9-160.1l-29.9 4.5c13.9 66.1 2.2 137.3-32.2 195.5l-6.7 19.2c58.8 162.4 2.5 228.3-35.9 503.6l10.4 16.4c106 27.3 277.1 26.8 382.8-1.5l11.8-14.9z" fill="#FE9191" p-id="12129"></path><path d="M678.4 358.9l-6.7-19.2c-34.4-58.2-46.1-129.4-32.2-195.5l-29.9-4.5c-5.7 23.7-14.4 46.8-25.7 68.5 1.4 46.1 14.3 91.9 37.8 131.6l6.7 19.2c-53 147-2.5 228.3 35.9 503.6l-12 14.9c-47.5 12.7-108.1 19.8-170.1 21.3 78.5 1.9 159.9-5.2 220.1-21.3l12-14.9c-38.4-275.4-88.9-356.7-35.9-503.7z" fill="#E4406F" p-id="12130"></path><path d="M338 360.8c10 27.8 18.1 56.5 22.2 85.8 3.5 25.4 3.8 51.3 1.7 76.9-2.2 27.5-7.1 54.7-12.4 81.8-6.7 33.9-14.2 67.6-21 101.5-10.3 51-19.2 102.2-26.4 153.8-0.6 3.9 1 7.8 5.1 9 3.4 1 8.5-1.2 9-5.1 6.6-46.9 14.5-93.7 23.7-140.2 6.9-35.3 14.7-70.4 21.8-105.7 10.9-54 20.3-109.1 14.1-164.3-3.7-33.4-12.3-65.8-23.7-97.4-3.2-8.8-17.3-5-14.1 3.9zM376.9 146.1c13.3 64.5 1.8 133.1-31.5 189.9-4.8 8.1 7.9 15.5 12.6 7.4 35.3-60.3 47.1-132.8 33-201.2-1.9-9.3-16-5.4-14.1 3.9zM406.8 141.5c15.4 63.1 50.7 120.9 99.8 163.4 7.1 6.1 17.5-4.2 10.4-10.4-47.4-41-81.2-96.1-96.1-156.9-2.2-9.1-16.3-5.2-14.1 3.9zM317.6 885.9c48 12.3 98 17.5 147.4 19.5 53.3 2.2 107 0.5 160-6.2 26.7-3.4 53.2-7.9 79.2-14.8 9.1-2.4 5.2-16.5-3.9-14.1-47 12.5-95.7 17.9-144.2 20.2-52.6 2.5-105.5 1.2-157.8-4.8-25.9-3-51.7-7.4-76.9-13.8-9-2.5-12.9 11.7-3.8 14zM671.3 356.9c-18.4 51.4-26 104.7-21.9 159.2 4.8 64.5 19.9 128.1 31.8 191.5 9.8 52.1 18.6 104.3 26 156.8 0.6 3.9 5.5 6 9 5.1 4.2-1.1 5.7-5.1 5.1-9-11.7-83.5-28.2-165.9-43.6-248.7-9.9-53.4-18.7-107.8-13.3-162.3 3-30.1 10.7-60 20.9-88.7 3.3-8.9-10.8-12.7-14-3.9zM632.4 142.2c-14.1 68.4-2.4 140.9 33 201.2 4.8 8.1 17.4 0.8 12.6-7.4-33.3-56.8-44.8-125.4-31.5-189.9 1.9-9.2-12.2-13.2-14.1-3.9z" fill="#9C297F" p-id="12131"></path><path d="M602.5 137.6c-14.9 60.9-48.7 115.9-96.1 156.9-7.1 6.2 3.3 16.5 10.4 10.4 49.1-42.5 84.4-100.3 99.8-163.4 2.2-9.1-11.9-13-14.1-3.9z" fill="#9C297F" p-id="12132"></path><path d="M508.3 332.5v509.6c0 8.5 13.2 8.5 13.2 0V648.9 433.6 332.5c0-8.5-13.2-8.5-13.2 0z" fill="#FFFFFF" p-id="12133"></path></svg>