<?xml version="1.0" standalone="no"?><!DOCTYPE svg PUBLIC "-//W3C//DTD SVG 1.1//EN" "http://www.w3.org/Graphics/SVG/1.1/DTD/svg11.dtd"><svg t="1624022852184" class="icon" viewBox="0 0 1024 1024" version="1.1" xmlns="http://www.w3.org/2000/svg" p-id="3181" xmlns:xlink="http://www.w3.org/1999/xlink" width="200" height="200"><defs><style type="text/css"></style></defs><path d="M865.5 252.5v659.9c0 26-21.1 47.1-47.1 47.1H205.6c-26 0-47.1-21.1-47.1-47.1V252.5l199.4 106.3c-6.6 17-10.4 35.5-10.8 54.8-2 88.8 70.5 165.7 159.2 168.7 93.8 3.1 170.7-71.8 170.7-164.9 0-20.7-3.8-40.5-10.8-58.7l199.3-106.2z" fill="#DD4238" p-id="3182"></path><path d="M865.5 110.9v94.6L646.6 322.8c-29.7-42.3-78.9-70-134.6-70s-104.9 27.7-134.6 70L158.5 205.5v-94.6c0-26 21.2-47.3 47.1-47.3h612.7c26-0.1 47.2 21.2 47.2 47.3z" fill="#DD4238" p-id="3183"></path><path d="M565 423.4H459c-9.8 0-17.7-7.9-17.7-17.7 0-9.8 7.9-17.7 17.7-17.7h106c9.8 0 17.7 7.9 17.7 17.7 0 9.8-7.9 17.7-17.7 17.7z" fill="#3E6493" p-id="3184"></path><path d="M583.3 331.7L542 403.2c-4.9 8.5-15.7 11.4-24.1 6.5-8.5-4.9-11.4-15.7-6.5-24.1l41.2-71.4c4.9-8.5 15.7-11.4 24.1-6.5 8.6 4.8 11.5 15.6 6.6 24z" fill="#3E6493" p-id="3185"></path><path d="M440.7 331.7l41.2 71.4c4.9 8.5 15.7 11.4 24.1 6.5 8.5-4.9 11.4-15.7 6.5-24.1L471.3 314c-4.9-8.5-15.7-11.4-24.1-6.5-8.5 5-11.4 15.8-6.5 24.2z" fill="#3E6493" p-id="3186"></path><path d="M494.3 517.7v-106c0-9.8 7.9-17.7 17.7-17.7 9.8 0 17.7 7.9 17.7 17.7v106c0 9.8-7.9 17.7-17.7 17.7-9.8-0.1-17.7-8-17.7-17.7z" fill="#3E6493" p-id="3187"></path><path d="M565 482.3H459c-9.8 0-17.7-7.9-17.7-17.7 0-9.8 7.9-17.7 17.7-17.7h106c9.8 0 17.7 7.9 17.7 17.7 0 9.8-7.9 17.7-17.7 17.7z" fill="#3E6493" p-id="3188"></path></svg>