<?xml version="1.0" standalone="no"?><!DOCTYPE svg PUBLIC "-//W3C//DTD SVG 1.1//EN" "http://www.w3.org/Graphics/SVG/1.1/DTD/svg11.dtd"><svg t="1623893019652" class="icon" viewBox="0 0 1024 1024" version="1.1" xmlns="http://www.w3.org/2000/svg" p-id="14739" xmlns:xlink="http://www.w3.org/1999/xlink" width="200" height="200"><defs><style type="text/css"></style></defs><path d="M781.0816 806.44608c-0.26624-32.36864 8.46848-61.6448 13.5424-88.23808a494.45376 494.45376 0 0 1 17.68448-62.19776c17.36192-52.47488 38.96832-117.76 32.95744-228.49024l-0.08704-1.15712c-15.19104-154.112-131.5328-224.54784-226.54464-238.01856-81.84832-11.5968-151.92064 14.2336-181.30944 65.024C401.6128 267.88864 348.40576 313.56928 327.32672 393.216c-22.528 12.71296-53.20192 27.648-78.11072 42.496-12.48256 7.43936-23.71072 13.46048-26.04544 28.31872a51.16928 51.16928 0 0 0 11.35616 41.1392l17.4848 20.61312c-19.32288 35.2256-103.936 98.47296-30.49472 140.46208 9.12896 5.2224 19.74272 6.528 29.80864 9.59488 52.78208 16.06144 72.192 17.536 93.312 32.04608 17.0496 10.70592 38.48192 26.25536 49.53088 50.12992 13.70112 29.60384 21.0688 47.872 23.59296 54.33856a28.16 28.16 0 0 0 26.1888 18.432h0.512l302.4384 24.34048c11.13088-0.18944 30.39744 0 35.0464-15.54944 3.30752-11.1616-0.77312-21.9136-0.86528-33.13152z" fill="#64F4AF" p-id="14740"></path><path d="M480.256 596.66432l-31.744-9.216c-0.5888 1.87392-15.23712 45.94176-86.13376 57.344l10.54208 65.024c114.61632-18.432 138.32192-101.08416 139.264-104.59136z m395.45856 189.61408a624.80896 624.80896 0 0 1 24.46336-81.64352c24.0128-68.8896 53.90336-154.624 45.568-299.97568l-0.12288-1.536c-13.312-128.2048-88.9088-231.34208-207.36-282.9568-111.45728-48.5632-241.82272-43.27424-317.03552 12.86144a153.82016 153.82016 0 0 0-39.7568 43.008A247.6032 247.6032 0 0 0 228.2496 345.12896C197.06368 361.81504 152.064 387.072 117.58592 406.528a65.05472 65.05472 0 0 0-16.54272 100.0704l24.18688 27.06432c-28.4928 49.3312-77.48608 155.30496-7.24992 204.8 55.02464 38.78912 120.32 51.11808 145.83296 54.61504a60.8512 60.8512 0 0 1 21.39136 6.8608 88.22784 88.22784 0 0 1 36.64384 38.5792c23.75168 48.7168 33.86368 74.35776 33.95072 74.59328l61.65504-23.89504c-0.44032-1.11616-10.99776-28.00128-36.096-79.48288A153.99424 153.99424 0 0 0 317.44 742.4256a126.8736 126.8736 0 0 0-44.59008-14.592c-20.70528-2.83648-73.51296-12.7232-116.63872-43.12576-23.13216-16.3072 7.52128-90.94144 37.55008-136.29952l13.45024-22.11328-56.20736-62.87872C183.296 445.16352 241.152 412.672 272.06656 396.55936l13.59872-7.08096 3.3536-14.9248c12.63616-56.2432 41.472-91.51488 72.64256-113.72032 0.22016 3.072 0.512 6.20032 0.91136 9.33376l0.1792 1.22368c10.80832 64.57344 53.18144 157.31712 137.04704 206.17728 13.40928 7.81312 22.80448 22.1696 27.93472 42.66496 12.85632 51.4048-5.23264 126.60224-23.32672 155.79136-23.96672 38.64064-27.31008 106.8544-7.95648 162.19136 14.93504 42.71104 41.89696 72.9856 75.91424 85.24288l22.528-61.952c-20.14208-7.25504-31.17568-31.2832-35.95776-44.95872-13.77792-39.424-10.20928-86.56384 1.77152-105.89184 23.80288-38.4 50.176-130.51904 31.232-206.336-9.45664-37.82656-29.76768-66.7392-58.7264-83.6096C469.3504 383.488 436.736 311.67488 428.1088 261.18144c-3.80928-30.94528 7.2192-56.32 32.79872-75.40224 55.22944-41.22624 163.09248-43.4688 250.88-5.22752 56.32 24.54528 152.97536 86.87104 168.0128 228.62848 7.424 131.84-18.8672 207.27296-42.07616 273.83808a674.17088 674.17088 0 0 0-26.84416 90.33728c-14.0032 69.74464 22.41024 125.5168 62.17728 147.81952l32.45568-57.40544c-19.64032-11.01312-37.32992-39.9616-29.78304-77.4912z m-120.2176-227.75296a303.104 303.104 0 0 1-7.79776-130.95424c19.0464-134.18496-86.30272-212.95616-144.6656-235.86304l-24.24832 61.30176c1.19808 0.47104 119.99744 48.51712 103.424 165.32992a364.45696 364.45696 0 0 0 9.05216 155.86304c8.37632 34.06848 12.98944 52.83328-4.21376 89.03168-31.1552 65.536-36.44928 145.29024-13.48096 203.18208 12.87168 32.45568 33.58208 55.07584 59.904 65.41824l24.28928-61.2864c-8.704-3.4304-16.77824-13.4912-22.66112-28.3392-13.57312-34.20672-15.20128-94.09024 11.74016-150.76864 27.25888-57.34912 18.2272-94.0544 8.67328-132.9152z" fill="#242F44" p-id="14741"></path></svg>